# xmcd CD database file
#
# Track frame offsets:
#	150
#	25273
#	47515
#	72617
#	93514
#	110786
#	127836
#	151547
#	178635
#	198377
#	222494
#
# Disc length: 3464 seconds
#
# Revision: 0
# Processed by: cddbd v1.5.2PL0 Copyright (c) Steve Scherf et al.
# Submitted via: CDex 1.70beta2
#
DISCID=970d860b
DTITLE=HUMMUNE - CRAFTED IN DARKNESS
DYEAR=2012
DGENRE=Stoner
TTITLE0=MOTH
TTITLE1=INTO DUST
TTITLE2=CLAW
TTITLE3=RISE
TTITLE4=DRIVEN TO HUSK
TTITLE5=BULLETS
TTITLE6=RUST
TTITLE7=PUZZLE
TTITLE8=CRUSH MY HEART
TTITLE9=INSIDE
TTITLE10=ERA
EXTD=YEAR: 2012
EXTT0=
EXTT1=
EXTT2=
EXTT3=
EXTT4=
EXTT5=
EXTT6=
EXTT7=
EXTT8=
EXTT9=
EXTT10=
PLAYORDER=
